<svg width="355" height="420" viewBox="0 0 355 420" fill="none" xmlns="http://www.w3.org/2000/svg">
<g filter="url(#filter0_d)">
<path d="M130.474 242.459L111.487 359.444C111.116 361.732 112.671 363.887 114.961 364.258L118.095 364.765C120.385 365.136 122.542 363.582 122.913 361.295L141.901 244.309C142.272 242.022 140.717 239.867 138.427 239.496L135.293 238.988C133.003 238.617 130.846 240.171 130.474 242.459Z" fill="#6D2E6F"/>
<path d="M212.43 243.502L231.411 360.83C231.782 363.125 233.945 364.684 236.241 364.313L239.384 363.806C241.681 363.435 243.242 361.274 242.871 358.98L223.89 241.652C223.518 239.358 221.356 237.799 219.059 238.169L215.916 238.677C213.62 239.048 212.059 241.208 212.43 243.502Z" fill="#6D2E6F"/>
<path d="M171.778 244.806V363.32C171.778 365.637 173.659 367.516 175.979 367.516H179.153C181.473 367.516 183.354 365.637 183.354 363.32V244.806C183.354 242.489 181.473 240.61 179.153 240.61H175.979C173.659 240.61 171.778 242.489 171.778 244.806Z" fill="#6D2E6F"/>
<path d="M238.869 63H116.131C109.431 63 104 68.4158 104 75.0965V245.904C104 252.584 109.431 258 116.131 258H238.869C245.569 258 251 252.584 251 245.904V75.0965C251 68.4158 245.569 63 238.869 63Z" fill="white"/>
<path d="M179.253 22.5332H176.64C173.919 22.5332 171.712 24.7373 171.712 27.4561V58.0508C171.712 60.7697 173.919 62.9737 176.64 62.9737H179.253C181.974 62.9737 184.181 60.7697 184.181 58.0508V27.4561C184.181 24.7373 181.974 22.5332 179.253 22.5332Z" fill="#77C3A9"/>
<path d="M194.367 56.8613H162.386C159.664 56.8613 157.458 59.0654 157.458 61.7842V64.1301C157.458 66.8489 159.664 69.053 162.386 69.053H194.367C197.088 69.053 199.295 66.8489 199.295 64.1301V61.7842C199.295 59.0654 197.088 56.8613 194.367 56.8613Z" fill="#6D2E6F"/>
<path d="M229.754 253.242H126.138C123.289 253.242 120.979 255.55 120.979 258.396V259.652C120.979 262.498 123.289 264.806 126.138 264.806H229.754C232.604 264.806 234.914 262.498 234.914 259.652V258.396C234.914 255.55 232.604 253.242 229.754 253.242Z" fill="#6D2E6F"/>
</g>
<defs>
<filter id="filter0_d" x="-10" y="-8" width="389" height="454" filterUnits="userSpaceOnUse" color-interpolation-filters="sRGB">
<feFlood flood-opacity="0" result="BackgroundImageFix"/>
<feColorMatrix in="SourceAlpha" type="matrix" values="0 0 0 0 0 0 0 0 0 0 0 0 0 0 0 0 0 0 127 0"/>
<feOffset dx="7" dy="9"/>
<feGaussianBlur stdDeviation="8.5"/>
<feColorMatrix type="matrix" values="0 0 0 0 0.2375 0 0 0 0 0.1425 0 0 0 0 0.2109 0 0 0 0.25 0"/>
<feBlend mode="normal" in2="BackgroundImageFix" result="effect1_dropShadow"/>
<feBlend mode="normal" in="SourceGraphic" in2="effect1_dropShadow" result="shape"/>
</filter>
</defs>
</svg>
