<svg width="120" height="490" viewBox="0 0 120 490" fill="none" xmlns="http://www.w3.org/2000/svg">
<g filter="url(#filter0_d)">
<path d="M32.1232 0.000410834H87.7252C91.4311 -0.0196734 95.1045 0.696813 98.5341 2.10863C101.964 3.52045 105.082 5.59981 107.709 8.22713C110.337 10.8544 112.422 13.9779 113.845 17.418C115.268 20.8582 116 24.5471 116 28.2727V482H4V28.2727C4 20.7744 6.96297 13.5833 12.2371 8.2812C17.5112 2.97913 24.6644 0.000410834 32.1232 0.000410834Z" fill="#77C3A9"/>
<path d="M64.6328 418.164C68.3047 418.43 71.1953 419.789 73.3047 422.242C75.4141 424.68 76.4688 427.898 76.4688 431.898C76.4688 436.273 75 439.719 72.0625 442.234C69.1094 444.734 65.0625 445.984 59.9219 445.984H57.8359C54.5547 445.984 51.6641 445.406 49.1641 444.25C46.6641 443.094 44.75 441.445 43.4219 439.305C42.0781 437.148 41.4062 434.648 41.4062 431.805C41.4062 427.867 42.4609 424.695 44.5703 422.289C46.6797 419.883 49.6406 418.492 53.4531 418.117V425.148C51.25 425.32 49.6562 425.938 48.6719 427C47.6719 428.047 47.1719 429.648 47.1719 431.805C47.1719 434.148 48.0156 435.906 49.7031 437.078C51.375 438.234 53.9766 438.828 57.5078 438.859H60.0859C63.7734 438.859 66.4688 438.305 68.1719 437.195C69.875 436.07 70.7266 434.305 70.7266 431.898C70.7266 429.727 70.2344 428.109 69.25 427.047C68.25 425.969 66.7109 425.352 64.6328 425.195V418.164ZM76 399.297C75.3906 399.609 74.6328 399.836 73.7266 399.977C75.5547 401.617 76.4688 403.75 76.4688 406.375C76.4688 408.859 75.75 410.922 74.3125 412.562C72.875 414.188 71.0625 415 68.875 415C66.1875 415 64.125 414.008 62.6875 412.023C61.25 410.023 60.5234 407.141 60.5078 403.375V400.258H59.0547C57.8828 400.258 56.9453 400.562 56.2422 401.172C55.5391 401.766 55.1875 402.711 55.1875 404.008C55.1875 405.148 55.4609 406.047 56.0078 406.703C56.5547 407.344 57.3047 407.664 58.2578 407.664V414.438C56.7891 414.438 55.4297 413.984 54.1797 413.078C52.9297 412.172 51.9531 410.891 51.25 409.234C50.5313 407.578 50.1719 405.719 50.1719 403.656C50.1719 400.531 50.9609 398.055 52.5391 396.227C54.1016 394.383 56.3047 393.461 59.1484 393.461H70.1406C72.5469 393.445 74.3672 393.109 75.6016 392.453H76V399.297ZM71.2891 404.898C71.2891 403.898 71.0703 402.977 70.6328 402.133C70.1797 401.289 69.5781 400.664 68.8281 400.258H64.4688V402.789C64.4688 406.18 65.6406 407.984 67.9844 408.203L68.3828 408.227C69.2266 408.227 69.9219 407.93 70.4688 407.336C71.0156 406.742 71.2891 405.93 71.2891 404.898ZM50.6406 366.203H76V372.977H56.125V378.953L63.9531 379.375C68.125 379.641 71.1641 380.461 73.0703 381.836C74.9766 383.211 75.9531 385.258 76 387.977V390.273L70.4922 390.344L70.4219 389.5C70.3281 388.281 69.6094 387.391 68.2656 386.828C66.9219 386.266 64.6328 385.914 61.3984 385.773L50.6406 385.305V366.203ZM58.0703 353.734V348.883C58.0703 346.695 58.4375 344.773 59.1719 343.117C59.9063 341.461 60.9609 340.195 62.3359 339.32C63.6953 338.43 65.2813 337.984 67.0938 337.984C69.7656 337.984 71.9219 338.977 73.5625 340.961C75.1875 342.93 76 345.617 76 349.023V360.531H50.6406V353.734H58.0703ZM63.5078 353.734H70.5859V348.93C70.5859 347.586 70.2734 346.555 69.6484 345.836C69.0234 345.117 68.1719 344.758 67.0938 344.758C66 344.758 65.1328 345.109 64.4922 345.812C63.8359 346.516 63.5078 347.555 63.5078 348.93V353.734ZM76 333.719H50.6406V323.125C50.6406 319.672 51.25 317.023 52.4688 315.18C53.6875 313.336 55.4375 312.414 57.7188 312.414C58.8906 312.414 59.9453 312.805 60.8828 313.586C61.8047 314.352 62.5156 315.477 63.0156 316.961C63.3594 315.148 64.0391 313.727 65.0547 312.695C66.0547 311.648 67.2891 311.125 68.7578 311.125C71.1172 311.125 72.9141 312.016 74.1484 313.797C75.3828 315.562 76 318.133 76 321.508V333.719ZM65.4766 326.945H70.5859V321.484C70.5859 319.094 69.75 317.898 68.0781 317.898C66.375 317.898 65.5078 319.039 65.4766 321.32V326.945ZM60.9297 326.945V322.75C60.8984 320.375 60.1328 319.188 58.6328 319.188C57.7109 319.188 57.0547 319.516 56.6641 320.172C56.2734 320.812 56.0781 321.797 56.0781 323.125V326.945H60.9297ZM76 292.281C75.3906 292.594 74.6328 292.82 73.7266 292.961C75.5547 294.602 76.4688 296.734 76.4688 299.359C76.4688 301.844 75.75 303.906 74.3125 305.547C72.875 307.172 71.0625 307.984 68.875 307.984C66.1875 307.984 64.125 306.992 62.6875 305.008C61.25 303.008 60.5234 300.125 60.5078 296.359V293.242H59.0547C57.8828 293.242 56.9453 293.547 56.2422 294.156C55.5391 294.75 55.1875 295.695 55.1875 296.992C55.1875 298.133 55.4609 299.031 56.0078 299.688C56.5547 300.328 57.3047 300.648 58.2578 300.648V307.422C56.7891 307.422 55.4297 306.969 54.1797 306.062C52.9297 305.156 51.9531 303.875 51.25 302.219C50.5313 300.562 50.1719 298.703 50.1719 296.641C50.1719 293.516 50.9609 291.039 52.5391 289.211C54.1016 287.367 56.3047 286.445 59.1484 286.445H70.1406C72.5469 286.43 74.3672 286.094 75.6016 285.438H76V292.281ZM71.2891 297.883C71.2891 296.883 71.0703 295.961 70.6328 295.117C70.1797 294.273 69.5781 293.648 68.8281 293.242H64.4688V295.773C64.4688 299.164 65.6406 300.969 67.9844 301.188L68.3828 301.211C69.2266 301.211 69.9219 300.914 70.4688 300.32C71.0156 299.727 71.2891 298.914 71.2891 297.883ZM70.5391 280.891C68.9141 279.359 67.3047 278.32 65.7109 277.773C64.1172 277.227 61.8594 276.922 58.9375 276.859L50.6406 276.672V258.016H70.5391V254.359H83.6172V261.133H76V276.156H83.6172V283.07H70.5391V280.891ZM70.5391 272.898V264.766H56.2422V270.039L59.2891 270.086C63.9453 270.227 67.6953 271.164 70.5391 272.898ZM63.0859 251.969C60.5703 251.969 58.3281 251.484 56.3594 250.516C54.3906 249.547 52.8672 248.156 51.7891 246.344C50.7109 244.516 50.1719 242.398 50.1719 239.992C50.1719 236.57 51.2188 233.781 53.3125 231.625C55.4063 229.453 58.25 228.242 61.8438 227.992L63.5781 227.945C67.4688 227.945 70.5938 229.031 72.9531 231.203C75.2969 233.375 76.4688 236.289 76.4688 239.945C76.4688 243.602 75.2969 246.523 72.9531 248.711C70.6094 250.883 67.4219 251.969 63.3906 251.969H63.0859ZM63.5781 245.195C65.9844 245.195 67.8281 244.742 69.1094 243.836C70.375 242.93 71.0078 241.633 71.0078 239.945C71.0078 238.305 70.3828 237.023 69.1328 236.102C67.8672 235.18 65.8516 234.719 63.0859 234.719C60.7266 234.719 58.8984 235.18 57.6016 236.102C56.3047 237.023 55.6563 238.32 55.6563 239.992C55.6563 241.648 56.3047 242.93 57.6016 243.836C58.8828 244.742 60.875 245.195 63.5781 245.195ZM63.5547 200.945C67.4609 200.945 70.5938 201.836 72.9531 203.617C75.2969 205.383 76.4688 207.773 76.4688 210.789C76.4688 213.352 75.5781 215.422 73.7969 217H85.75L85.75 223.773H50.6406V217.492L53.125 217.258C51.1563 215.617 50.1719 213.477 50.1719 210.836C50.1719 207.711 51.3281 205.281 53.6406 203.547C55.9531 201.812 59.1406 200.945 63.2031 200.945H63.5547ZM63.0625 207.719C60.7031 207.719 58.8828 208.141 57.6016 208.984C56.3203 209.812 55.6797 211.023 55.6797 212.617C55.6797 214.742 56.4922 216.203 58.1172 217H68.5C70.1719 216.172 71.0078 214.695 71.0078 212.57C71.0078 209.336 68.3594 207.719 63.0625 207.719ZM84.3906 152.688V159.18H76V179.758H84.3672L84.3672 186.414L70.3516 186.789V184.211C69.1953 182.82 67.5 181.75 65.2656 181C63.0156 180.234 60.2344 179.719 56.9219 179.453L41.875 178.469L41.875 156.109H70.3516V152.125L84.3906 152.688ZM70.3516 176.148V163.141H47.5703V171.789L56.5469 172.375C62.5625 172.844 67.1641 174.102 70.3516 176.148ZM76 134.172C75.3906 134.484 74.6328 134.711 73.7266 134.852C75.5547 136.492 76.4688 138.625 76.4688 141.25C76.4688 143.734 75.75 145.797 74.3125 147.438C72.875 149.062 71.0625 149.875 68.875 149.875C66.1875 149.875 64.125 148.883 62.6875 146.898C61.25 144.898 60.5234 142.016 60.5078 138.25V135.133H59.0547C57.8828 135.133 56.9453 135.438 56.2422 136.047C55.5391 136.641 55.1875 137.586 55.1875 138.883C55.1875 140.023 55.4609 140.922 56.0078 141.578C56.5547 142.219 57.3047 142.539 58.2578 142.539L58.2578 149.312C56.7891 149.312 55.4297 148.859 54.1797 147.953C52.9297 147.047 51.9531 145.766 51.25 144.109C50.5313 142.453 50.1719 140.594 50.1719 138.531C50.1719 135.406 50.9609 132.93 52.5391 131.102C54.1016 129.258 56.3047 128.336 59.1484 128.336H70.1406C72.5469 128.32 74.3672 127.984 75.6016 127.328H76V134.172ZM71.2891 139.773C71.2891 138.773 71.0703 137.852 70.6328 137.008C70.1797 136.164 69.5781 135.539 68.8281 135.133H64.4688V137.664C64.4688 141.055 65.6406 142.859 67.9844 143.078L68.3828 143.102C69.2266 143.102 69.9219 142.805 70.4688 142.211C71.0156 141.617 71.2891 140.805 71.2891 139.773ZM50.6406 101.078H76V107.852H56.125V113.828L63.9531 114.25C68.125 114.516 71.1641 115.336 73.0703 116.711C74.9766 118.086 75.9531 120.133 76 122.852V125.148L70.4922 125.219L70.4219 124.375C70.3281 123.156 69.6094 122.266 68.2656 121.703C66.9219 121.141 64.6328 120.789 61.3984 120.648L50.6406 120.18V101.078ZM50.6406 80.5703V73.7969H76V80.5703H60.3438L76 89.0547V95.8516H50.6406V89.0547H66.2734L50.6406 80.5703Z" fill="white"/>
</g>
<defs>
<filter id="filter0_d" x="0" y="0" width="120" height="490" filterUnits="userSpaceOnUse" color-interpolation-filters="sRGB">
<feFlood flood-opacity="0" result="BackgroundImageFix"/>
<feColorMatrix in="SourceAlpha" type="matrix" values="0 0 0 0 0 0 0 0 0 0 0 0 0 0 0 0 0 0 127 0"/>
<feOffset dy="4"/>
<feGaussianBlur stdDeviation="2"/>
<feColorMatrix type="matrix" values="0 0 0 0 0 0 0 0 0 0 0 0 0 0 0 0 0 0 0.25 0"/>
<feBlend mode="normal" in2="BackgroundImageFix" result="effect1_dropShadow"/>
<feBlend mode="normal" in="SourceGraphic" in2="effect1_dropShadow" result="shape"/>
</filter>
</defs>
</svg>
