<svg width="113" height="460" viewBox="0 0 113 460" fill="none" xmlns="http://www.w3.org/2000/svg">
<path d="M112.962 460H0L0 81.2686C0 73.7713 2.9934 66.581 8.32182 61.2796C13.6502 55.9782 20.8772 53 28.4127 53H84.5873C92.1228 53 99.3497 55.9782 104.678 61.2796C110.007 66.581 113 73.7713 113 81.2686L113 460H112.962Z" fill="#77C3A9"/>
<path d="M60.1016 374.172L60.1016 378.227L74 378.227L74 385.258L60.1016 385.258L60.1016 389.406L74 396.836L74 405.602L55.6953 394.961L39.875 405.086L39.875 396.344L53.6328 388.75L53.6328 385.258L39.875 385.258L39.875 378.227L53.6328 378.227L53.6328 374.805L39.875 367.398L39.875 358.68L55.6719 368.617L74 358.141L74 366.93L60.1016 374.172ZM58.3672 348.156L58.3672 344.5C55.2109 344 52.7266 342.711 50.9141 340.633C49.0859 338.539 48.1719 335.906 48.1719 332.734C48.1719 329.312 49.2187 326.523 51.3125 324.367C53.4062 322.195 56.25 320.984 59.8437 320.734L61.5781 320.687C65.4687 320.687 68.5937 321.773 70.9531 323.945C73.2969 326.117 74.4687 329.031 74.4687 332.687C74.4687 335.984 73.5156 338.687 71.6094 340.797C69.7031 342.891 67.1172 344.148 63.8516 344.57L63.8516 348.156L74 348.156L74 354.953L48.6406 354.953L48.6406 348.156L58.3672 348.156ZM61.5781 337.937C63.9844 337.937 65.8281 337.484 67.1094 336.578C68.375 335.672 69.0078 334.375 69.0078 332.687C69.0078 331.016 68.375 329.727 67.1094 328.82C65.8437 327.914 63.8359 327.461 61.0859 327.461C58.7266 327.461 56.8984 327.922 55.6016 328.844C54.3047 329.766 53.6562 331.062 53.6562 332.734C53.6562 334.391 54.3047 335.672 55.6016 336.578C56.8828 337.484 58.875 337.937 61.5781 337.937ZM48.6406 294.812L74 294.812L74 301.586L54.125 301.586L54.125 307.562L61.9531 307.984C66.125 308.25 69.1641 309.07 71.0703 310.445C72.9766 311.82 73.9531 313.867 74 316.586L74 318.883L68.4922 318.953L68.4219 318.109C68.3281 316.891 67.6094 316 66.2656 315.437C64.9219 314.875 62.6328 314.523 59.3984 314.383L48.6406 313.914L48.6406 294.812ZM56.0703 282.344L56.0703 277.492C56.0703 275.305 56.4375 273.383 57.1719 271.727C57.9062 270.07 58.9609 268.805 60.3359 267.93C61.6953 267.039 63.2812 266.594 65.0937 266.594C67.7656 266.594 69.9219 267.586 71.5625 269.57C73.1875 271.539 74 274.227 74 277.633L74 289.141L48.6406 289.141L48.6406 282.344L56.0703 282.344ZM61.5078 282.344L68.5859 282.344L68.5859 277.539C68.5859 276.195 68.2734 275.164 67.6484 274.445C67.0234 273.727 66.1719 273.367 65.0937 273.367C64 273.367 63.1328 273.719 62.4922 274.422C61.8359 275.125 61.5078 276.164 61.5078 277.539L61.5078 282.344ZM74 250.375L39.875 250.375L39.875 238.422C39.875 234.281 40.6719 231.141 42.2656 229C43.8437 226.859 46.1641 225.789 49.2266 225.789C50.8984 225.789 52.375 226.219 53.6562 227.078C54.9219 227.937 55.8516 229.133 56.4453 230.664C56.8828 228.914 57.7656 227.539 59.0937 226.539C60.4219 225.523 62.0469 225.016 63.9687 225.016C67.25 225.016 69.7344 226.062 71.4219 228.156C73.1094 230.25 73.9687 233.234 74 237.109L74 250.375ZM59.1406 243.344L68.3516 243.344L68.3516 237.32C68.3516 235.664 67.9609 234.375 67.1797 233.453C66.3828 232.516 65.2891 232.047 63.8984 232.047C60.7734 232.047 59.1875 233.664 59.1406 236.898L59.1406 243.344ZM54.1719 243.344L54.1719 238.141C54.1094 234.594 52.6953 232.82 49.9297 232.82C48.3828 232.82 47.2734 233.273 46.6016 234.18C45.9141 235.07 45.5703 236.484 45.5703 238.422L45.5703 243.344L54.1719 243.344ZM74.4687 208.492C74.4687 212.211 73.3281 215.242 71.0469 217.586C68.7656 219.914 65.7266 221.078 61.9297 221.078L61.2734 221.078C58.7266 221.078 56.4531 220.586 54.4531 219.602C52.4375 218.617 50.8906 217.227 49.8125 215.43C48.7187 213.617 48.1719 211.555 48.1719 209.242C48.1719 205.773 49.2656 203.047 51.4531 201.062C53.6406 199.062 56.7422 198.062 60.7578 198.062L63.5234 198.062L63.5234 214.211C65.1797 213.992 66.5078 213.336 67.5078 212.242C68.5078 211.133 69.0078 209.734 69.0078 208.047C69.0078 205.437 68.0625 203.398 66.1719 201.93L69.8984 198.602C71.3359 199.617 72.4609 200.992 73.2734 202.727C74.0703 204.461 74.4687 206.383 74.4687 208.492ZM53.6562 209.266C53.6562 210.609 54.1094 211.703 55.0156 212.547C55.9219 213.375 57.2187 213.906 58.9062 214.141L58.9062 204.719L58.3672 204.719C56.8672 204.75 55.7109 205.156 54.8984 205.937C54.0703 206.719 53.6562 207.828 53.6562 209.266ZM61.5547 171.367C65.4609 171.367 68.5937 172.258 70.9531 174.039C73.2969 175.805 74.4687 178.195 74.4687 181.211C74.4687 183.773 73.5781 185.844 71.7969 187.422L83.75 187.422L83.75 194.195L48.6406 194.195L48.6406 187.914L51.125 187.68C49.1562 186.039 48.1719 183.898 48.1719 181.258C48.1719 178.133 49.3281 175.703 51.6406 173.969C53.9531 172.234 57.1406 171.367 61.2031 171.367L61.5547 171.367ZM61.0625 178.141C58.7031 178.141 56.8828 178.562 55.6016 179.406C54.3203 180.234 53.6797 181.445 53.6797 183.039C53.6797 185.164 54.4922 186.625 56.1172 187.422L66.5 187.422C68.1719 186.594 69.0078 185.117 69.0078 182.992C69.0078 179.758 66.3594 178.141 61.0625 178.141ZM74 145.164L74 151.961L64.25 151.961L64.25 160.375L74 160.375L74 167.148L48.6406 167.148L48.6406 160.375L58.8125 160.375L58.8125 151.961L48.6406 151.961L48.6406 145.164L74 145.164Z" fill="white"/>
</svg>
