<svg width="240" height="351" viewBox="0 0 240 351" fill="none" xmlns="http://www.w3.org/2000/svg">
<path d="M164.277 338.002L211.927 316.631C227.269 309.75 234.134 291.72 227.262 276.359L116.416 28.5989C109.544 13.2382 91.5357 6.36387 76.1941 13.2447L28.5439 34.6162C13.2023 41.497 6.3365 59.5273 13.2088 74.888L124.055 322.648C130.927 338.009 148.935 344.883 164.277 338.002Z" fill="#E97F31"/>
<path d="M162.334 310.406L180.558 291.503L154.52 294.765L150.393 286.504L180.921 271.253L184.074 277.564L175.729 281.733L161.011 288.3L187.876 285.175L190.034 289.494L171.412 309.067L185.481 301.253L193.826 297.084L196.968 303.374L166.441 318.625L162.334 310.406ZM171.808 253.012C171.403 253.564 170.826 254.105 170.078 254.636C172.447 255.287 174.217 256.786 175.391 259.134C176.501 261.357 176.78 263.523 176.227 265.633C175.667 267.729 174.409 269.266 172.452 270.244C170.048 271.445 167.759 271.479 165.587 270.346C163.407 269.2 161.469 266.945 159.772 263.584L158.378 260.795L157.079 261.445C156.03 261.968 155.328 262.66 154.971 263.519C154.607 264.365 154.715 265.367 155.295 266.528C155.805 267.548 156.451 268.23 157.233 268.572C158.009 268.901 158.823 268.852 159.676 268.426L162.703 274.486C161.389 275.142 159.97 275.344 158.447 275.092C156.924 274.84 155.478 274.13 154.108 272.963C152.725 271.802 151.573 270.3 150.651 268.455C149.254 265.659 148.853 263.091 149.448 260.75C150.022 258.403 151.581 256.593 154.125 255.322L163.958 250.41C166.104 249.32 167.582 248.206 168.393 247.068L168.749 246.89L171.808 253.012ZM170.097 260.128C169.65 259.234 169.043 258.507 168.274 257.948C167.492 257.395 166.674 257.105 165.822 257.077L161.922 259.025L163.053 261.289C164.568 264.323 166.423 265.413 168.618 264.562L168.985 264.404C169.739 264.027 170.229 263.451 170.453 262.675C170.677 261.9 170.558 261.051 170.097 260.128ZM145.539 228.277C149.033 226.531 152.234 225.928 155.141 226.467C158.026 226.999 160.143 228.614 161.491 231.312C162.636 233.604 162.765 235.854 161.876 238.062L172.569 232.72L175.597 238.779L144.189 254.47L141.381 248.851L143.499 247.531C141.005 246.943 139.167 245.468 137.987 243.106C136.591 240.31 136.539 237.62 137.833 235.035C139.126 232.45 141.59 230.25 145.224 228.434L145.539 228.277ZM148.126 234.556C146.015 235.611 144.575 236.802 143.806 238.129C143.03 239.443 142.998 240.812 143.71 242.238C144.66 244.139 146.04 245.083 147.85 245.069L157.138 240.429C158.263 238.941 158.351 237.247 157.402 235.346C155.956 232.452 152.864 232.189 148.126 234.556ZM125.271 216.604L122.244 210.545L144.93 199.212L147.957 205.271L133.952 212.268L151.749 212.861L154.787 218.941L132.101 230.275L129.063 224.194L143.048 217.208L125.271 216.604ZM110.481 186.999L133.167 175.666L136.184 181.704L128.342 185.622L130.259 189.459L140.279 189.902L143.349 196.046L132.008 195.528C132.056 197.198 131.727 198.673 131.021 199.951C130.308 201.216 129.266 202.19 127.896 202.874C125.702 203.971 123.483 204.022 121.241 203.029C118.977 202.029 117.105 200.118 115.624 197.294L110.481 186.999ZM126.181 191.889L124.107 187.738L118.362 190.608L120.332 194.55C120.869 195.626 121.592 196.356 122.5 196.741C123.395 197.132 124.247 197.126 125.058 196.721C125.869 196.316 126.379 195.659 126.589 194.751C126.799 193.842 126.663 192.889 126.181 191.889ZM107.62 155.732L109.432 159.359L121.907 153.127L125.049 159.417L94.522 174.668L91.3797 168.378L103.603 162.271L102.168 159.399L86.2157 158.041L82.382 150.368L101.531 152.565L112.417 134.131L116.167 141.637L107.62 155.732ZM94.1378 132.521L92.5038 129.251C89.4568 130.214 86.6582 130.171 84.1081 129.122C81.5369 128.066 79.5426 126.119 78.125 123.282C76.5958 120.221 76.2858 117.258 77.1951 114.393C78.0975 111.514 80.1003 109.16 83.2034 107.33L84.734 106.513C88.2145 104.775 91.4954 104.349 94.5766 105.238C97.6439 106.133 99.9946 108.217 101.629 111.487C103.102 114.437 103.458 117.281 102.695 120.02C101.925 122.745 100.174 125.026 97.4414 126.862L99.044 130.07L108.123 125.535L111.16 131.615L88.4743 142.949L85.4366 136.868L94.1378 132.521ZM92.4433 121.945C94.5959 120.869 96.0428 119.64 96.7839 118.257C97.5111 116.88 97.4976 115.437 96.7434 113.928C95.9962 112.432 94.854 111.562 93.3168 111.317C91.7796 111.072 89.781 111.564 87.3209 112.793C85.2102 113.847 83.7808 115.077 83.0327 116.481C82.2845 117.885 82.284 119.335 83.0312 120.831C83.7714 122.312 84.9241 123.169 86.4893 123.4C88.0405 123.638 90.0252 123.153 92.4433 121.945ZM72.6568 82.3913C76.1513 80.6455 79.3518 80.0422 82.2585 80.5812C85.1443 81.1132 87.261 82.7281 88.6088 85.4258C89.754 87.7181 89.8825 89.9682 88.9943 92.1761L99.6873 86.834L102.714 92.8934L71.3064 108.584L68.4993 102.965L70.617 101.645C68.1226 101.057 66.2853 99.5824 65.1051 97.2202C63.7085 94.4247 63.657 91.7344 64.9506 89.1493C66.2442 86.5643 68.7081 84.364 72.3423 82.5484L72.6568 82.3913ZM75.2437 88.6706C73.133 89.7251 71.6932 90.916 70.9241 92.2434C70.148 93.5568 70.1161 94.9264 70.8284 96.3521C71.7781 98.2531 73.1578 99.1969 74.9676 99.1835L84.2559 94.5433C85.3814 93.0553 85.4693 91.3608 84.5196 89.4598C83.0741 86.5664 79.9821 86.3034 75.2437 88.6706ZM52.3894 70.7186L49.3622 64.6592L72.0481 53.3257L75.0752 59.3851L61.0695 66.3821L78.867 66.975L81.9047 73.0553L59.2188 84.3888L56.1812 78.3085L70.1659 71.3219L52.3894 70.7186Z" fill="white"/>
</svg>
